<svg xmlns="http://www.w3.org/2000/svg" xmlns:xlink="http://www.w3.org/1999/xlink" width="40" height="40" viewBox="0 0 40 40">
  <defs>
    <clipPath id="clip-path">
      <circle id="Ellipse_577" data-name="Ellipse 577" cx="18" cy="18" r="18" transform="translate(822.165 333.165)" fill="#fff"/>
    </clipPath>
    <linearGradient id="linear-gradient" x1="0.5" x2="0.5" y2="1" gradientUnits="objectBoundingBox">
      <stop offset="0" stop-color="#e0e0e0"/>
      <stop offset="1" stop-color="#b2b2b2"/>
    </linearGradient>
  </defs>
  <g id="Group_5439" data-name="Group 5439" transform="translate(-151 -556)">
    <circle id="Ellipse_342" data-name="Ellipse 342" cx="20" cy="20" r="20" transform="translate(151 556)" fill="#8e8e90"/>
    <g id="Mask_Group_65" data-name="Mask Group 65" transform="translate(-669.165 224.835)" clip-path="url(#clip-path)">
      <g id="Layer_2" data-name="Layer 2" transform="translate(819.275 330.275)">
        <g id="Layer_1" data-name="Layer 1" transform="translate(0 0)">
          <path id="Path_10200" data-name="Path 10200" d="M20.858,41.741A20.872,20.872,0,1,1,28.983,40.1a20.878,20.878,0,0,1-8.126,1.641Zm0-39.93A19.053,19.053,0,1,0,39.911,20.863,19.053,19.053,0,0,0,20.858,1.811Z" transform="translate(0.034 0.024)" fill="#fff"/>
          <rect id="Rectangle_3599" data-name="Rectangle 3599" width="41.755" height="41.755" transform="translate(0.014 0.01)" fill="none"/>
          <g id="download" transform="translate(6.014 11.174)">
            <path id="Path_10201" data-name="Path 10201" d="M22.234,18.394a7.719,7.719,0,0,1-4.272-3.306c.1-.087.189-.176.284-.274,3.237.652,5.827-1.938,5.827-1.938-2,0-2.908-1.631-3.325-3.12C21.919,4.7,19.966,0,14.876,0S7.833,4.7,9,9.756c-.417,1.489-1.323,3.12-3.325,3.12,0,0,2.59,2.59,5.827,1.938.095.1.189.187.284.274a7.713,7.713,0,0,1-4.272,3.306A8.044,8.044,0,0,0,2,25.752s3.679,3.679,12.876,3.679,12.876-3.679,12.876-3.679A8.044,8.044,0,0,0,22.234,18.394Z" fill="url(#linear-gradient)"/>
          </g>
        </g>
      </g>
    </g>
  </g>
</svg>
