<svg xmlns="http://www.w3.org/2000/svg" xmlns:xlink="http://www.w3.org/1999/xlink" width="40" height="40" viewBox="0 0 40 40">
  <defs>
    <clipPath id="clip-path">
      <circle id="Ellipse_577" data-name="Ellipse 577" cx="18" cy="18" r="18" transform="translate(822.165 333.165)" fill="#fff"/>
    </clipPath>
    <linearGradient id="linear-gradient" x1="0.5" x2="0.5" y2="1" gradientUnits="objectBoundingBox">
      <stop offset="0" stop-color="#f2f2f2"/>
      <stop offset="1" stop-color="#c9c9c9"/>
    </linearGradient>
    <linearGradient id="linear-gradient-2" x1="0.5" x2="0.5" y2="0.925" gradientUnits="objectBoundingBox">
      <stop offset="0" stop-color="#e0e0e0"/>
      <stop offset="1" stop-color="#b2b2b2"/>
    </linearGradient>
  </defs>
  <g id="Group_5438" data-name="Group 5438" transform="translate(-151 -556)">
    <circle id="Ellipse_342" data-name="Ellipse 342" cx="20" cy="20" r="20" transform="translate(151 556)" fill="#8e8e90"/>
    <g id="Mask_Group_65" data-name="Mask Group 65" transform="translate(-669.165 224.835)" clip-path="url(#clip-path)">
      <g id="Layer_2" data-name="Layer 2" transform="translate(819.275 330.275)">
        <g id="Layer_1" data-name="Layer 1" transform="translate(0 0)">
          <path id="Union_23" data-name="Union 23" d="M16.889-11382.311c0-5.828,7.729-10.553,13.545-10.553s13.545,4.725,13.545,10.553c0,.529-7.093,5.317-13.545,5.317C24.1-11376.993,16.889-11381.421,16.889-11382.311Zm6.394-20.649a7.15,7.15,0,0,1,7.15-7.15,7.15,7.15,0,0,1,7.15,7.15c0,3.951-3.2,8.708-7.15,8.708S23.284-11399.009,23.284-11402.96Z" transform="translate(23.458 11380.169)" fill="url(#linear-gradient)"/>
          <path id="Path_10200" data-name="Path 10200" d="M20.858,41.741A20.872,20.872,0,1,1,28.983,40.1a20.878,20.878,0,0,1-8.126,1.641Zm0-39.93A19.053,19.053,0,1,0,39.911,20.863,19.053,19.053,0,0,0,20.858,1.811Z" transform="translate(0.034 0.024)" fill="#fff"/>
          <rect id="Rectangle_3599" data-name="Rectangle 3599" width="41.755" height="41.755" transform="translate(0.014 0.01)" fill="none"/>
          <path id="download_1_1" data-name="download (1)1" d="M17.824,19.883a10.54,10.54,0,0,0,3.719-5.261,1.832,1.832,0,0,0,1.065-1.145,1.607,1.607,0,0,0-.43-1.905c.064-.475.124-.971.179-1.5.5-4.779-1.492-7.573-6.07-7.573q-.5,0-1.052.046a4.429,4.429,0,0,0-2.316.9,4.705,4.705,0,0,0-1-.114c-2.983,0-4.219,3.309-3.809,6.746.062.521.126,1.015.2,1.488a1.6,1.6,0,0,0-.446,1.912,1.817,1.817,0,0,0,1.1,1.154,10.453,10.453,0,0,0,3.687,5.252c-5.179,1.294-9.6,3.238-9.6,5.18v.994c0,1.045,5.462,6.311,12.2,6.311S27.43,27.1,27.43,26.057v-.994h0C27.43,23.121,23.006,21.178,17.824,19.883Z" transform="translate(5.617 8.551)" fill="url(#linear-gradient-2)"/>
        </g>
      </g>
    </g>
  </g>
</svg>
